<svg class="svg-icon" style="width: 5em; height: 1em;vertical-align: middle;fill: currentColor;overflow: hidden;" viewBox="0 0 1024 1024" version="1.1" xmlns="http://www.w3.org/2000/svg"><path d="M868.2496 500.65408a20.48 20.48 0 0 1-9.60512 31.0272c-31.66208 22.44608-201.15456 149.62688-328.00768 383.67232a20.7872 20.7872 0 0 1-14.336 12.71808c-1.72032 0.4096-3.44064 0.57344-5.16096 0.57344a19.43552 19.43552 0 0 1-17.03936-9.27744 20.19328 20.19328 0 0 1-2.29376-4.66944c-16.44544-31.9488-125.56288-233.92256-327.33184-384.12288a20.45952 20.45952 0 0 1-12.45184-18.8416v-0.47104a20.50048 20.50048 0 0 1 13.27104-19.64032c26.19392-18.28864 197.61152-143.81056 326.9632-381.17376a20.48 20.48 0 0 1 30.90432-12.86144 20.48 20.48 0 0 1 9.3184 11.34592c12.55424 24.73984 121.61024 231.79264 328.4992 385.04448 2.90816 1.61792 5.44768 3.8912 7.2704 6.67648z"  /></svg>